<mxfile host="app.diagrams.net" modified="2021-04-18T20:08:07.204Z" agent="5.0 (Macintosh)" etag="cV-ujNJjnYBe-JzURZw0" version="14.6.1" type="github">
  <diagram id="hkUKVAphAMezJ2__QRPF" name="Page-1">
    <mxGraphModel dx="1493" dy="953" grid="1" gridSize="10" guides="1" tooltips="1" connect="1" arrows="1" fold="1" page="1" pageScale="1" pageWidth="827" pageHeight="1169" math="0" shadow="0">
      <root>
        <mxCell id="0" />
        <mxCell id="1" parent="0" />
        <mxCell id="PPyIZ7dVhFgzQ_1O-O67-7" style="edgeStyle=orthogonalEdgeStyle;rounded=0;orthogonalLoop=1;jettySize=auto;html=1;exitX=0.5;exitY=1;exitDx=0;exitDy=0;entryX=0.5;entryY=0;entryDx=0;entryDy=0;endArrow=open;endFill=0;startArrow=none;startFill=0;" edge="1" parent="1" source="PPyIZ7dVhFgzQ_1O-O67-1" target="PPyIZ7dVhFgzQ_1O-O67-6">
          <mxGeometry relative="1" as="geometry" />
        </mxCell>
        <mxCell id="PPyIZ7dVhFgzQ_1O-O67-8" value="&lt;div&gt;UNDERPINNED BY&lt;/div&gt;" style="edgeLabel;html=1;align=center;verticalAlign=middle;resizable=0;points=[];" vertex="1" connectable="0" parent="PPyIZ7dVhFgzQ_1O-O67-7">
          <mxGeometry x="-0.5333" y="3" relative="1" as="geometry">
            <mxPoint as="offset" />
          </mxGeometry>
        </mxCell>
        <mxCell id="PPyIZ7dVhFgzQ_1O-O67-2" value="&lt;b&gt;BUSINESS CAPABILITY&lt;/b&gt;&lt;br&gt;cmdb_ci_business_capability" style="rounded=1;whiteSpace=wrap;html=1;fillColor=#dae8fc;strokeColor=#6c8ebf;" vertex="1" parent="1">
          <mxGeometry x="1060.13" y="420" width="180" height="70" as="geometry" />
        </mxCell>
        <mxCell id="PPyIZ7dVhFgzQ_1O-O67-3" value="" style="endArrow=none;html=1;entryX=0.5;entryY=1;entryDx=0;entryDy=0;exitX=0.5;exitY=0;exitDx=0;exitDy=0;startArrow=open;startFill=0;" edge="1" parent="1" source="PPyIZ7dVhFgzQ_1O-O67-1" target="PPyIZ7dVhFgzQ_1O-O67-2">
          <mxGeometry width="50" height="50" relative="1" as="geometry">
            <mxPoint x="1175.13" y="880" as="sourcePoint" />
            <mxPoint x="1225.13" y="830" as="targetPoint" />
          </mxGeometry>
        </mxCell>
        <mxCell id="PPyIZ7dVhFgzQ_1O-O67-4" value="PROVIDED BY" style="edgeLabel;html=1;align=center;verticalAlign=middle;resizable=0;points=[];" vertex="1" connectable="0" parent="PPyIZ7dVhFgzQ_1O-O67-3">
          <mxGeometry x="0.4" y="-2" relative="1" as="geometry">
            <mxPoint x="1" as="offset" />
          </mxGeometry>
        </mxCell>
        <mxCell id="PPyIZ7dVhFgzQ_1O-O67-10" value="" style="endArrow=none;html=1;entryX=1;entryY=0.5;entryDx=0;entryDy=0;exitX=0;exitY=0.5;exitDx=0;exitDy=0;endFill=0;startArrow=open;startFill=0;" edge="1" parent="1" source="PPyIZ7dVhFgzQ_1O-O67-6" target="PPyIZ7dVhFgzQ_1O-O67-5">
          <mxGeometry width="50" height="50" relative="1" as="geometry">
            <mxPoint x="690" y="880" as="sourcePoint" />
            <mxPoint x="740" y="830" as="targetPoint" />
          </mxGeometry>
        </mxCell>
        <mxCell id="PPyIZ7dVhFgzQ_1O-O67-11" value="UNDERPINNED BY" style="edgeLabel;html=1;align=center;verticalAlign=middle;resizable=0;points=[];" vertex="1" connectable="0" parent="PPyIZ7dVhFgzQ_1O-O67-10">
          <mxGeometry x="-0.2435" relative="1" as="geometry">
            <mxPoint as="offset" />
          </mxGeometry>
        </mxCell>
        <mxCell id="PPyIZ7dVhFgzQ_1O-O67-15" value="&lt;h1&gt;What is a service?&lt;br&gt;&lt;/h1&gt;&lt;p&gt;A service is a means of delivering value to customers by facilitating outcomes customers want to achieve without the ownership of specific costs and risks. Services typically have three aspects: the &lt;u&gt;interaction&lt;/u&gt;, the &lt;u&gt;offering&lt;/u&gt;, and the &lt;u&gt;service system&lt;/u&gt;. The three OOB service types are &lt;u&gt;application&lt;/u&gt;, &lt;u&gt;business&lt;/u&gt;, and &lt;u&gt;technical&lt;/u&gt;.&lt;/p&gt;" style="text;html=1;strokeColor=none;fillColor=none;spacing=5;spacingTop=-20;whiteSpace=wrap;overflow=hidden;rounded=0;fontSize=10;align=left;" vertex="1" parent="1">
          <mxGeometry x="270" y="180" width="240" height="130" as="geometry" />
        </mxCell>
        <mxCell id="PPyIZ7dVhFgzQ_1O-O67-21" style="edgeStyle=orthogonalEdgeStyle;rounded=0;orthogonalLoop=1;jettySize=auto;html=1;exitX=1;exitY=0.5;exitDx=0;exitDy=0;entryX=0;entryY=0.5;entryDx=0;entryDy=0;fontSize=10;endArrow=none;endFill=0;startArrow=open;startFill=0;" edge="1" parent="1" source="PPyIZ7dVhFgzQ_1O-O67-17" target="PPyIZ7dVhFgzQ_1O-O67-2">
          <mxGeometry relative="1" as="geometry" />
        </mxCell>
        <mxCell id="PPyIZ7dVhFgzQ_1O-O67-22" value="PROVIDED BY" style="edgeLabel;html=1;align=center;verticalAlign=middle;resizable=0;points=[];fontSize=10;" vertex="1" connectable="0" parent="PPyIZ7dVhFgzQ_1O-O67-21">
          <mxGeometry x="0.3558" y="-2" relative="1" as="geometry">
            <mxPoint x="-34" y="-2" as="offset" />
          </mxGeometry>
        </mxCell>
        <mxCell id="PPyIZ7dVhFgzQ_1O-O67-17" value="&lt;b&gt;BUSINESS APPLICATION&lt;/b&gt;&lt;br&gt;cmdb_ci_business_app" style="rounded=1;whiteSpace=wrap;html=1;fillColor=#dae8fc;strokeColor=#6c8ebf;" vertex="1" parent="1">
          <mxGeometry x="355.16" y="420" width="165" height="70" as="geometry" />
        </mxCell>
        <mxCell id="PPyIZ7dVhFgzQ_1O-O67-19" value="" style="group" vertex="1" connectable="0" parent="1">
          <mxGeometry x="1065.13" y="980" width="320" height="70" as="geometry" />
        </mxCell>
        <mxCell id="PPyIZ7dVhFgzQ_1O-O67-6" value="&lt;b&gt;TECHNICAL SERVICE&lt;/b&gt;&lt;br&gt;cmdb_ci_service_technical&lt;br&gt;&lt;font style=&quot;font-size: 10px&quot;&gt;[ cmdb_ci_service ]&lt;/font&gt;" style="rounded=1;whiteSpace=wrap;html=1;fillColor=#ffe6cc;strokeColor=#d79b00;" vertex="1" parent="PPyIZ7dVhFgzQ_1O-O67-19">
          <mxGeometry width="165" height="70" as="geometry" />
        </mxCell>
        <mxCell id="PPyIZ7dVhFgzQ_1O-O67-14" value="Service type that is published to service owners and typically underpins one or more business or application services" style="text;html=1;strokeColor=none;fillColor=none;align=left;verticalAlign=middle;whiteSpace=wrap;rounded=0;fontSize=10;" vertex="1" parent="PPyIZ7dVhFgzQ_1O-O67-19">
          <mxGeometry x="180" y="2.5" width="140" height="65" as="geometry" />
        </mxCell>
        <mxCell id="PPyIZ7dVhFgzQ_1O-O67-16" style="edgeStyle=orthogonalEdgeStyle;rounded=0;orthogonalLoop=1;jettySize=auto;html=1;exitX=0.5;exitY=1;exitDx=0;exitDy=0;fontSize=10;endArrow=none;endFill=0;" edge="1" parent="PPyIZ7dVhFgzQ_1O-O67-19" source="PPyIZ7dVhFgzQ_1O-O67-6" target="PPyIZ7dVhFgzQ_1O-O67-6">
          <mxGeometry relative="1" as="geometry" />
        </mxCell>
        <mxCell id="PPyIZ7dVhFgzQ_1O-O67-20" value="" style="group" vertex="1" connectable="0" parent="1">
          <mxGeometry x="1055.13" y="687.5" width="340" height="70" as="geometry" />
        </mxCell>
        <mxCell id="PPyIZ7dVhFgzQ_1O-O67-1" value="&lt;b&gt;BUSINESS SERVICE&lt;/b&gt;&lt;br&gt;cmdb_ci_service w/ classification = &quot;Business Service&quot;" style="rounded=1;whiteSpace=wrap;html=1;fillColor=#d5e8d4;strokeColor=#82b366;" vertex="1" parent="PPyIZ7dVhFgzQ_1O-O67-20">
          <mxGeometry width="185" height="70" as="geometry" />
        </mxCell>
        <mxCell id="PPyIZ7dVhFgzQ_1O-O67-12" value="Service type that is published to business users, and it typically underpins one or more business capabilities" style="text;html=1;strokeColor=none;fillColor=none;align=left;verticalAlign=middle;whiteSpace=wrap;rounded=0;fontSize=10;" vertex="1" parent="PPyIZ7dVhFgzQ_1O-O67-20">
          <mxGeometry x="200" y="2.5" width="140" height="65" as="geometry" />
        </mxCell>
        <mxCell id="PPyIZ7dVhFgzQ_1O-O67-23" value="&lt;h1&gt;Design &lt;span style=&quot;font-weight: normal&quot;&gt;domain&lt;/span&gt;&lt;/h1&gt;&lt;p&gt;Design is a CSDM Domain that represents those&lt;br&gt;tables currently utilized by Application Portfolio Management (APM). These tables are used for design and planning thus records in them are NOT the direct targets of ITSM processes, namely Incident, Problem, and Change management. These tables represent the logical design of the enterprise applications to be deployed and utilized by the business.&lt;/p&gt;" style="text;html=1;strokeColor=#6c8ebf;fillColor=#dae8fc;spacing=5;spacingTop=-20;whiteSpace=wrap;overflow=hidden;rounded=0;fontSize=10;align=left;" vertex="1" parent="1">
          <mxGeometry x="560" y="180" width="270" height="190" as="geometry" />
        </mxCell>
        <mxCell id="PPyIZ7dVhFgzQ_1O-O67-25" style="edgeStyle=orthogonalEdgeStyle;rounded=0;orthogonalLoop=1;jettySize=auto;html=1;exitX=0.5;exitY=0;exitDx=0;exitDy=0;entryX=0.5;entryY=1;entryDx=0;entryDy=0;fontSize=10;startArrow=open;startFill=0;endArrow=none;endFill=0;" edge="1" parent="1" source="PPyIZ7dVhFgzQ_1O-O67-5" target="PPyIZ7dVhFgzQ_1O-O67-17">
          <mxGeometry relative="1" as="geometry" />
        </mxCell>
        <mxCell id="PPyIZ7dVhFgzQ_1O-O67-26" value="CONSUMES" style="edgeLabel;html=1;align=center;verticalAlign=middle;resizable=0;points=[];fontSize=10;fontStyle=0" vertex="1" connectable="0" parent="PPyIZ7dVhFgzQ_1O-O67-25">
          <mxGeometry x="0.362" y="-2" relative="1" as="geometry">
            <mxPoint x="1" as="offset" />
          </mxGeometry>
        </mxCell>
        <mxCell id="PPyIZ7dVhFgzQ_1O-O67-27" value="&lt;h1&gt;Application vs.&lt;br&gt;Business Application&lt;/h1&gt;&lt;p&gt;The application table is not intended to be an inventory or portfolio of your applications. Those inventory/portfolio objects belong in the Business Application table. In the context of ServiceNow, applications are limited to single host and are meant to be those uniquely discoverable instances of code running on a host. Applications are considered to part of the infrastructure configuration items&lt;br&gt;&lt;/p&gt;" style="text;html=1;spacing=5;spacingTop=-20;whiteSpace=wrap;overflow=hidden;rounded=0;fontSize=10;align=left;" vertex="1" parent="1">
          <mxGeometry x="880" y="180" width="270" height="190" as="geometry" />
        </mxCell>
        <mxCell id="PPyIZ7dVhFgzQ_1O-O67-28" value="" style="group" vertex="1" connectable="0" parent="1">
          <mxGeometry x="1065.13" y="1240" width="530" height="70" as="geometry" />
        </mxCell>
        <mxCell id="PPyIZ7dVhFgzQ_1O-O67-29" value="&lt;b&gt;TS OFFERING&lt;/b&gt;&lt;br&gt;service_offering w/ classification = &quot;Technical Service&quot;&lt;br&gt;&lt;font style=&quot;font-size: 10px&quot;&gt;[ cmdb_ci_service ]&lt;/font&gt;" style="rounded=1;whiteSpace=wrap;html=1;fillColor=#ffe6cc;strokeColor=#d79b00;" vertex="1" parent="PPyIZ7dVhFgzQ_1O-O67-28">
          <mxGeometry x="-21.61" width="208.2142857142857" height="70" as="geometry" />
        </mxCell>
        <mxCell id="PPyIZ7dVhFgzQ_1O-O67-30" value="Stratification (grouping) of Technical Services into properties like pricing, region, environment, etc. Different levels of performance and features for a given technical service can be made available via the &lt;b&gt;technical service offering&lt;/b&gt;. A service commitment defines service delivery obligations agreed to between consumer and provider. There is also a concept of a service offering subscription that records which users have access to an offering" style="text;html=1;strokeColor=none;fillColor=none;align=left;verticalAlign=middle;whiteSpace=wrap;rounded=0;fontSize=10;" vertex="1" parent="PPyIZ7dVhFgzQ_1O-O67-28">
          <mxGeometry x="200.00285714285712" y="-18.75" width="302.85714285714283" height="107.5" as="geometry" />
        </mxCell>
        <mxCell id="PPyIZ7dVhFgzQ_1O-O67-31" style="edgeStyle=orthogonalEdgeStyle;rounded=0;orthogonalLoop=1;jettySize=auto;html=1;exitX=0.5;exitY=1;exitDx=0;exitDy=0;fontSize=10;endArrow=none;endFill=0;" edge="1" parent="PPyIZ7dVhFgzQ_1O-O67-28" source="PPyIZ7dVhFgzQ_1O-O67-29" target="PPyIZ7dVhFgzQ_1O-O67-29">
          <mxGeometry relative="1" as="geometry" />
        </mxCell>
        <mxCell id="PPyIZ7dVhFgzQ_1O-O67-38" style="edgeStyle=orthogonalEdgeStyle;rounded=0;orthogonalLoop=1;jettySize=auto;html=1;exitX=0.5;exitY=1;exitDx=0;exitDy=0;entryX=0.5;entryY=0;entryDx=0;entryDy=0;fontSize=10;startArrow=open;startFill=0;endArrow=none;endFill=0;" edge="1" parent="1" source="PPyIZ7dVhFgzQ_1O-O67-6" target="PPyIZ7dVhFgzQ_1O-O67-29">
          <mxGeometry relative="1" as="geometry" />
        </mxCell>
        <mxCell id="PPyIZ7dVhFgzQ_1O-O67-39" value="&lt;div&gt;CONTAINS&lt;/div&gt;" style="edgeLabel;html=1;align=center;verticalAlign=middle;resizable=0;points=[];fontSize=10;" vertex="1" connectable="0" parent="PPyIZ7dVhFgzQ_1O-O67-38">
          <mxGeometry x="0.0211" relative="1" as="geometry">
            <mxPoint as="offset" />
          </mxGeometry>
        </mxCell>
        <mxCell id="PPyIZ7dVhFgzQ_1O-O67-49" value="" style="group" vertex="1" connectable="0" parent="1">
          <mxGeometry x="590" y="1370" width="212.5" height="165" as="geometry" />
        </mxCell>
        <mxCell id="PPyIZ7dVhFgzQ_1O-O67-42" value="APPLICATION&lt;br style=&quot;font-size: 10px;&quot;&gt;" style="rounded=1;whiteSpace=wrap;html=1;fillColor=#ffe6cc;strokeColor=#d79b00;verticalAlign=top;fontStyle=1;fontSize=10;" vertex="1" parent="PPyIZ7dVhFgzQ_1O-O67-49">
          <mxGeometry x="16.25" y="25" width="140" height="40" as="geometry" />
        </mxCell>
        <mxCell id="PPyIZ7dVhFgzQ_1O-O67-44" style="edgeStyle=orthogonalEdgeStyle;rounded=0;orthogonalLoop=1;jettySize=auto;html=1;exitX=0.5;exitY=1;exitDx=0;exitDy=0;fontSize=10;endArrow=none;endFill=0;fontStyle=1" edge="1" parent="PPyIZ7dVhFgzQ_1O-O67-49" source="PPyIZ7dVhFgzQ_1O-O67-42" target="PPyIZ7dVhFgzQ_1O-O67-42">
          <mxGeometry x="110.36000000000001" y="235" as="geometry" />
        </mxCell>
        <mxCell id="PPyIZ7dVhFgzQ_1O-O67-45" value="SERVER" style="rounded=1;whiteSpace=wrap;html=1;fillColor=#ffe6cc;strokeColor=#d79b00;verticalAlign=top;fontStyle=1;fontSize=10;" vertex="1" parent="PPyIZ7dVhFgzQ_1O-O67-49">
          <mxGeometry x="36.25" y="55" width="140" height="40" as="geometry" />
        </mxCell>
        <mxCell id="PPyIZ7dVhFgzQ_1O-O67-46" value="NETWORK GEAR" style="rounded=1;whiteSpace=wrap;html=1;fillColor=#ffe6cc;strokeColor=#d79b00;verticalAlign=top;fontStyle=1;fontSize=10;" vertex="1" parent="PPyIZ7dVhFgzQ_1O-O67-49">
          <mxGeometry x="56.25" y="85" width="140" height="40" as="geometry" />
        </mxCell>
        <mxCell id="PPyIZ7dVhFgzQ_1O-O67-48" value="&lt;br&gt;&lt;br&gt;&lt;br&gt;&lt;br&gt;&lt;br&gt;&lt;br&gt;&lt;br&gt;&lt;br&gt;&lt;br&gt;&lt;br&gt;&lt;div&gt;CONFIGURATION ITEMS&lt;/div&gt;" style="rounded=1;whiteSpace=wrap;html=1;fontSize=10;align=center;fillColor=none;" vertex="1" parent="PPyIZ7dVhFgzQ_1O-O67-49">
          <mxGeometry width="212.5" height="165" as="geometry" />
        </mxCell>
        <mxCell id="PPyIZ7dVhFgzQ_1O-O67-54" value="" style="group" vertex="1" connectable="0" parent="1">
          <mxGeometry x="330" y="1150" width="460" height="70" as="geometry" />
        </mxCell>
        <mxCell id="PPyIZ7dVhFgzQ_1O-O67-51" value="&lt;b&gt;DYNAMIC CI GROUP&lt;/b&gt;&lt;br&gt;cmdb_ci_query_based_service&lt;br&gt;&lt;font style=&quot;font-size: 10px&quot;&gt;[ cmdb_ci_service ]&lt;/font&gt;" style="rounded=1;whiteSpace=wrap;html=1;fillColor=#ffe6cc;strokeColor=#d79b00;" vertex="1" parent="PPyIZ7dVhFgzQ_1O-O67-54">
          <mxGeometry x="270" width="190" height="70" as="geometry" />
        </mxCell>
        <mxCell id="PPyIZ7dVhFgzQ_1O-O67-52" value="Using a Dynamic CI Group prevents Config Manager from manually associated Intrastructure CIs to the Technical Service. By simply defining a query, all CIs that need to be part of this Technical Service are automatically linked just by using one single relationship. Use service classification of either “Application Service” or “Technical Service” depending on its use." style="text;html=1;strokeColor=none;fillColor=none;align=right;verticalAlign=middle;whiteSpace=wrap;rounded=0;fontSize=10;" vertex="1" parent="PPyIZ7dVhFgzQ_1O-O67-54">
          <mxGeometry x="-40" y="2.5" width="300" height="65" as="geometry" />
        </mxCell>
        <mxCell id="PPyIZ7dVhFgzQ_1O-O67-53" style="edgeStyle=orthogonalEdgeStyle;rounded=0;orthogonalLoop=1;jettySize=auto;html=1;exitX=0.5;exitY=1;exitDx=0;exitDy=0;fontSize=10;endArrow=none;endFill=0;" edge="1" parent="PPyIZ7dVhFgzQ_1O-O67-54" source="PPyIZ7dVhFgzQ_1O-O67-51" target="PPyIZ7dVhFgzQ_1O-O67-51">
          <mxGeometry x="410" y="1240" as="geometry" />
        </mxCell>
        <mxCell id="PPyIZ7dVhFgzQ_1O-O67-55" style="edgeStyle=orthogonalEdgeStyle;rounded=0;orthogonalLoop=1;jettySize=auto;html=1;exitX=0.5;exitY=1;exitDx=0;exitDy=0;fontSize=10;startArrow=open;startFill=0;endArrow=none;endFill=0;dashed=1;" edge="1" parent="1" source="PPyIZ7dVhFgzQ_1O-O67-51">
          <mxGeometry relative="1" as="geometry">
            <mxPoint x="695" y="1370" as="targetPoint" />
          </mxGeometry>
        </mxCell>
        <mxCell id="PPyIZ7dVhFgzQ_1O-O67-56" value="AUTO GROUPING&lt;br&gt;THROUGH QUERY" style="edgeLabel;html=1;align=center;verticalAlign=middle;resizable=0;points=[];fontSize=10;" vertex="1" connectable="0" parent="PPyIZ7dVhFgzQ_1O-O67-55">
          <mxGeometry x="0.3067" relative="1" as="geometry">
            <mxPoint as="offset" />
          </mxGeometry>
        </mxCell>
        <mxCell id="PPyIZ7dVhFgzQ_1O-O67-61" value="" style="endArrow=classic;html=1;fontSize=10;entryX=1;entryY=0.5;entryDx=0;entryDy=0;exitX=0;exitY=0.5;exitDx=0;exitDy=0;" edge="1" parent="1" source="PPyIZ7dVhFgzQ_1O-O67-29" target="PPyIZ7dVhFgzQ_1O-O67-51">
          <mxGeometry width="50" height="50" relative="1" as="geometry">
            <mxPoint x="620" y="1180" as="sourcePoint" />
            <mxPoint x="670" y="1130" as="targetPoint" />
          </mxGeometry>
        </mxCell>
        <mxCell id="PPyIZ7dVhFgzQ_1O-O67-62" value="CONTAINS" style="edgeLabel;html=1;align=center;verticalAlign=middle;resizable=0;points=[];fontSize=10;" vertex="1" connectable="0" parent="PPyIZ7dVhFgzQ_1O-O67-61">
          <mxGeometry x="-0.2978" relative="1" as="geometry">
            <mxPoint as="offset" />
          </mxGeometry>
        </mxCell>
        <mxCell id="PPyIZ7dVhFgzQ_1O-O67-63" value="&lt;h1&gt;Manage Technical&lt;br&gt;Services &lt;span style=&quot;font-weight: normal&quot;&gt;domain&lt;/span&gt;&lt;/h1&gt;&lt;p&gt;Manage Technical Services is a CSDM Domain that represents those tables currently utilized by IT Operations&lt;br&gt;Management such as Service Mapping and ServiceNow Discovery. Additionally, they represent the technical service portfolio of services provided for the business to&lt;br&gt;consume. The Manage Technical Services tables are “operational” thus ARE selected for ITSM: Incident, Problem, and Change.&lt;/p&gt;" style="text;html=1;strokeColor=#d79b00;fillColor=#ffe6cc;spacing=5;spacingTop=-20;whiteSpace=wrap;overflow=hidden;rounded=0;fontSize=10;align=left;" vertex="1" parent="1">
          <mxGeometry x="1200" y="180" width="270" height="190" as="geometry" />
        </mxCell>
        <mxCell id="PPyIZ7dVhFgzQ_1O-O67-64" value="&lt;h1&gt;Sell/Consume &lt;span style=&quot;font-weight: normal&quot;&gt;domain&lt;/span&gt;&lt;/h1&gt;&lt;p&gt;Sell/Consume is a CSDM Domain that represents those tables currently utilized by Service Portfolio Management (SPM) and Customer Service Management (CSM). Additionally, they represent the business portfolio of services that may sell/consume elements of the manage technical services domain. The sell/consume tables are “operational” thus ARE selectable for ITSM: Incident, Problem, and Change..&lt;/p&gt;" style="text;html=1;strokeColor=#82b366;fillColor=#d5e8d4;spacing=5;spacingTop=-20;whiteSpace=wrap;overflow=hidden;rounded=0;fontSize=10;align=left;" vertex="1" parent="1">
          <mxGeometry x="1520" y="180" width="270" height="190" as="geometry" />
        </mxCell>
        <mxCell id="PPyIZ7dVhFgzQ_1O-O67-69" value="" style="endArrow=classic;html=1;fontSize=10;entryX=0;entryY=0.5;entryDx=0;entryDy=0;exitX=1;exitY=0.5;exitDx=0;exitDy=0;" edge="1" parent="1" source="PPyIZ7dVhFgzQ_1O-O67-66" target="PPyIZ7dVhFgzQ_1O-O67-1">
          <mxGeometry width="50" height="50" relative="1" as="geometry">
            <mxPoint x="1375.13" y="910" as="sourcePoint" />
            <mxPoint x="1425.13" y="860" as="targetPoint" />
          </mxGeometry>
        </mxCell>
        <mxCell id="PPyIZ7dVhFgzQ_1O-O67-71" value="CONTAINS" style="edgeLabel;html=1;align=center;verticalAlign=middle;resizable=0;points=[];fontSize=10;" vertex="1" connectable="0" parent="PPyIZ7dVhFgzQ_1O-O67-69">
          <mxGeometry x="-0.2758" y="2" relative="1" as="geometry">
            <mxPoint as="offset" />
          </mxGeometry>
        </mxCell>
        <mxCell id="PPyIZ7dVhFgzQ_1O-O67-72" value="" style="endArrow=classic;html=1;fontSize=10;entryX=0.75;entryY=0;entryDx=0;entryDy=0;exitX=0.5;exitY=1;exitDx=0;exitDy=0;" edge="1" parent="1" source="PPyIZ7dVhFgzQ_1O-O67-66" target="PPyIZ7dVhFgzQ_1O-O67-5">
          <mxGeometry width="50" height="50" relative="1" as="geometry">
            <mxPoint x="830" y="910" as="sourcePoint" />
            <mxPoint x="880" y="860" as="targetPoint" />
          </mxGeometry>
        </mxCell>
        <mxCell id="PPyIZ7dVhFgzQ_1O-O67-73" value="DEPENDS ON" style="edgeLabel;html=1;align=center;verticalAlign=middle;resizable=0;points=[];fontSize=10;" vertex="1" connectable="0" parent="PPyIZ7dVhFgzQ_1O-O67-72">
          <mxGeometry x="-0.3208" y="1" relative="1" as="geometry">
            <mxPoint as="offset" />
          </mxGeometry>
        </mxCell>
        <mxCell id="PPyIZ7dVhFgzQ_1O-O67-74" value="" style="group" vertex="1" connectable="0" parent="1">
          <mxGeometry x="690" y="520" width="270" height="160" as="geometry" />
        </mxCell>
        <mxCell id="PPyIZ7dVhFgzQ_1O-O67-66" value="&lt;b&gt;BUSINESS SERVICE OFFERING&lt;/b&gt;&lt;br&gt;service_offering w/ classification = &quot;Business Services&quot;&lt;br&gt;&lt;font style=&quot;font-size: 10px&quot;&gt;[ cmdb_ci_service ]&lt;/font&gt;" style="rounded=1;whiteSpace=wrap;html=1;fillColor=#d5e8d4;strokeColor=#82b366;" vertex="1" parent="PPyIZ7dVhFgzQ_1O-O67-74">
          <mxGeometry x="30.000000000000114" y="90" width="201.3235294117647" height="70" as="geometry" />
        </mxCell>
        <mxCell id="PPyIZ7dVhFgzQ_1O-O67-67" value="Service offerings (SO) consist of one or more service commitments that uniquely define the level of service in terms of availability, scope, pricing, and other factors. For example, an organization may offer two levels of desktop support in your organization: a “standard” offering of upgrades and virus protection and an “executive” offering with the standard commitments plus some type of response guarantee such as 30 minutes between 8-5 on weekdays." style="text;html=1;strokeColor=none;fillColor=none;align=center;verticalAlign=middle;whiteSpace=wrap;rounded=0;fontSize=10;" vertex="1" parent="PPyIZ7dVhFgzQ_1O-O67-74">
          <mxGeometry width="270" height="65" as="geometry" />
        </mxCell>
        <mxCell id="PPyIZ7dVhFgzQ_1O-O67-5" value="&lt;div&gt;&lt;b&gt;APPLICATION SERVICE&lt;/b&gt;&lt;br&gt;cmdb_ci_service_auto&lt;br&gt;&lt;/div&gt;&lt;font style=&quot;font-size: 10px&quot;&gt;[ cmdb_ci_service ]&lt;/font&gt;" style="rounded=1;whiteSpace=wrap;html=1;fillColor=#ffe6cc;strokeColor=#d79b00;" vertex="1" parent="1">
          <mxGeometry x="550" y="940" width="175.3125" height="70" as="geometry" />
        </mxCell>
        <mxCell id="PPyIZ7dVhFgzQ_1O-O67-13" value="Service type that is a logical representation of a deployed application stack. Can have one per environment or region" style="text;html=1;strokeColor=none;fillColor=none;align=right;verticalAlign=middle;whiteSpace=wrap;rounded=0;fontSize=10;" vertex="1" parent="1">
          <mxGeometry x="390.005" y="942.5" width="144.375" height="65" as="geometry" />
        </mxCell>
      </root>
    </mxGraphModel>
  </diagram>
</mxfile>
